<?xml version="1.0" standalone="no"?>
<!DOCTYPE svg PUBLIC "-//W3C//DTD SVG 20010904//EN"
 "http://www.w3.org/TR/2001/REC-SVG-20010904/DTD/svg10.dtd">
<svg version="1.0" xmlns="http://www.w3.org/2000/svg"
 width="300.000000pt" height="368.000000pt" viewBox="0 0 300.000000 368.000000"
 preserveAspectRatio="xMidYMid meet">
<metadata>
Created by potrace 1.10, written by Peter Selinger 2001-2011
</metadata>
<g transform="translate(0.000000,368.000000) scale(0.050000,-0.050000)"
fill="#2a6fc1" stroke="none">
<path d="M3320 7240 c0 -8 -47 -20 -103 -27 -57 -6 -110 -22 -117 -34 -8 -12
-80 -25 -162 -29 -81 -4 -181 -16 -221 -26 -41 -11 -96 -15 -122 -10 -27 5
-91 -11 -142 -35 -66 -31 -115 -41 -165 -33 -63 11 -78 3 -153 -77 -71 -75
-96 -89 -161 -89 -98 0 -143 -25 -172 -95 -13 -30 -48 -67 -77 -80 -30 -13
-72 -50 -92 -80 -21 -31 -76 -73 -124 -92 -81 -34 -190 -137 -275 -261 -36
-52 -38 -53 -240 -43 -112 6 -382 15 -599 21 l-395 11 0 -150 c0 -163 6 -170
110 -131 56 21 790 35 822 15 11 -7 47 5 79 26 132 87 155 63 140 -146 -25
-344 -24 -381 4 -414 74 -84 127 -187 106 -208 -33 -33 -25 -114 27 -265 26
-76 59 -187 73 -248 15 -60 37 -123 50 -140 49 -64 47 -72 -22 -64 -74 9 -83
-2 -93 -106 -5 -51 0 -59 37 -54 47 6 226 -105 229 -142 2 -13 1 -33 -2 -44
-24 -104 -19 -152 20 -206 29 -40 53 -121 73 -256 46 -299 47 -295 -23 -309
l-60 -12 74 -16 c73 -15 74 -17 106 -158 59 -268 138 -482 222 -607 33 -49 46
-108 57 -260 17 -241 7 -223 311 -556 138 -151 258 -290 267 -310 40 -83 125
-67 282 55 137 107 451 302 884 550 100 58 213 131 250 162 55 46 57 51 12 24
-80 -47 -67 -20 35 73 49 45 84 89 78 99 -6 9 -2 17 9 17 11 0 26 29 33 65 8
36 63 212 122 391 105 319 123 397 169 744 12 94 30 193 40 220 10 28 21 116
26 196 10 174 25 198 114 167 35 -13 72 -18 81 -12 28 18 22 169 -7 169 -80 1
-81 38 -1 109 109 98 191 266 198 404 2 60 14 121 26 135 12 14 19 29 15 34
-20 23 -30 138 -12 138 48 0 199 193 199 254 0 58 -54 181 -84 191 -15 5 -26
53 -29 126 -8 203 -50 188 484 176 l469 -10 0 52 0 52 -225 -10 c-124 -6 -339
-15 -479 -22 -253 -11 -254 -11 -298 39 -24 28 -52 46 -62 40 -30 -19 -71 30
-71 86 0 29 -14 63 -31 75 -16 13 -40 58 -52 102 -12 43 -57 131 -100 195 -44
63 -90 149 -103 190 -29 90 -57 128 -83 112 -10 -7 -34 1 -52 18 -19 16 -67
40 -107 52 -41 13 -85 37 -98 53 -13 16 -36 29 -51 29 -16 0 -28 9 -28 19 0
42 -227 121 -430 150 -22 3 -53 11 -70 17 -48 18 -340 29 -340 14z m161 -1300
c43 -23 79 -36 79 -30 0 19 189 -93 206 -121 8 -15 46 -33 85 -40 38 -8 74
-22 81 -32 6 -10 19 -12 30 -6 10 6 46 -8 79 -32 33 -23 71 -44 85 -46 110
-17 213 -267 215 -523 0 -77 9 -207 18 -290 21 -184 32 -178 -121 -74 l-128
86 -279 -16 c-185 -11 -289 -26 -310 -44 -17 -15 -42 -23 -56 -18 -13 5 -34
-12 -46 -38 -60 -131 -511 -157 -550 -32 -7 20 -25 36 -41 36 -16 0 -63 17
-104 37 -41 21 -108 38 -149 40 -42 1 -91 9 -110 19 -19 9 -93 19 -165 22 -71
3 -137 10 -145 15 -8 5 -67 -17 -130 -50 -135 -70 -205 -89 -205 -56 0 13 10
82 22 153 12 72 23 226 25 344 2 118 11 220 19 228 8 8 14 31 14 51 0 21 9 37
19 37 11 0 29 34 40 76 24 91 118 187 187 191 39 2 46 9 29 29 -17 20 -10 24
31 16 30 -5 59 -1 65 10 13 21 52 22 359 10 88 -4 194 0 235 9 41 8 75 9 75 1
0 -24 267 9 275 34 11 32 65 31 66 -1 0 -14 9 -9 21 10 26 46 81 44 179 -5z
m-1048 -1339 l50 -39 -46 -11 c-79 -17 -317 -23 -317 -8 0 79 231 123 313 58z
m1642 -21 c47 -15 98 -48 116 -75 24 -37 45 -47 83 -39 95 18 -9 -370 -114
-426 -110 -59 -569 -60 -678 -1 -64 34 -143 162 -130 212 6 24 -3 78 -21 120
-31 74 -31 75 5 42 21 -18 43 -27 51 -20 7 8 13 4 13 -7 0 -13 54 -22 135 -23
117 -1 130 2 99 25 -30 23 -30 29 -6 39 18 6 35 -4 42 -26 17 -54 163 -73 213
-28 36 33 67 25 67 -17 0 -12 52 -25 115 -30 102 -8 115 -4 115 29 0 20 11 49
25 64 20 22 17 24 -20 16 -25 -6 -45 -3 -45 6 0 21 -171 71 -306 89 -79 10
-92 18 -74 40 41 50 171 54 315 10z m512 -26 c14 -50 8 -59 -30 -44 -16 6 -30
33 -32 60 -5 61 46 48 62 -16z m-2626 -142 c39 -43 84 -72 112 -72 26 0 47 -8
47 -19 0 -24 45 -37 170 -50 98 -10 99 -10 34 15 -78 29 -65 54 28 54 36 0 71
9 77 19 7 11 84 16 177 12 90 -5 181 -9 201 -10 57 -2 28 -195 -38 -255 -93
-84 -284 -107 -549 -65 -243 38 -278 76 -332 355 -30 159 -34 226 -9 141 9
-29 46 -85 82 -125z m-161 60 c0 -72 88 -300 136 -354 74 -82 222 -117 494
-118 204 -1 217 -4 180 -33 -39 -30 -39 -31 10 -16 124 36 238 156 318 334
101 227 223 235 302 21 111 -302 220 -369 559 -345 418 30 457 51 546 293 l51
136 14 -138 c14 -130 9 -244 -30 -642 -27 -270 -47 -335 -179 -595 -16 -31
-40 -52 -54 -46 -14 5 -39 -3 -54 -19 -16 -15 -34 -23 -41 -16 -6 7 -12 -3
-12 -22 0 -19 9 -29 20 -22 11 7 20 -1 20 -18 0 -47 -50 -17 -73 44 -20 53
-21 53 -40 -36 -10 -49 -11 -93 -2 -97 9 -4 5 -21 -9 -39 -23 -27 -21 -30 14
-18 34 12 36 10 10 -11 -16 -14 -43 -50 -59 -82 -26 -49 -31 -52 -44 -20 -12
31 -14 28 -16 -13 -1 -46 -40 -133 -41 -91 0 10 -26 -10 -57 -45 -31 -35 -72
-64 -90 -64 -18 0 -33 -7 -33 -16 0 -8 -27 -31 -60 -51 -33 -19 -60 -29 -60
-22 0 8 -14 3 -30 -11 -17 -14 -37 -20 -44 -13 -7 7 -25 2 -40 -10 -22 -18
-24 -15 -13 15 13 34 11 35 -19 11 -29 -24 -34 -24 -34 3 0 18 -14 28 -35 25
-19 -3 -44 -1 -55 6 -42 24 -96 15 -105 -18 -5 -20 -27 -40 -48 -46 -30 -7
-37 -2 -28 21 10 27 5 27 -39 -2 -47 -31 -50 -31 -51 3 0 32 -3 31 -31 -5 -29
-38 -32 -39 -57 -4 -17 23 -32 29 -40 15 -21 -33 -51 -25 -53 14 -1 21 -5 25
-11 10 -6 -14 -23 -25 -38 -25 -16 0 -23 12 -16 30 7 18 0 30 -19 30 -16 0
-34 18 -40 40 -7 27 -21 36 -42 28 -18 -7 -32 -2 -32 10 0 14 -19 11 -50 -10
-40 -26 -56 -28 -80 -8 -17 14 -30 19 -30 12 0 -6 -18 6 -40 28 -22 22 -49 40
-60 40 -11 0 -20 23 -20 50 0 45 -19 60 -66 52 -10 -2 -12 5 -7 14 6 9 -1 39
-15 66 -14 27 -26 81 -28 119 -7 190 -58 338 -105 308 -10 -6 -19 -1 -19 11 0
12 -9 17 -19 10 -11 -6 -25 13 -32 44 -6 31 -21 78 -31 104 -18 43 -17 46 11
23 27 -23 30 -22 19 6 -7 18 -3 33 8 33 11 0 25 -11 31 -25 5 -14 7 7 5 45 -4
70 -48 172 -54 125 -2 -14 -4 -33 -5 -42 -9 -61 -112 -169 -126 -132 -8 22
-26 46 -42 56 -19 12 -21 23 -6 42 15 18 10 35 -19 61 -43 39 -52 70 -20 70
11 0 21 -16 22 -35 0 -19 6 -24 11 -11 5 13 -3 44 -19 70 -22 35 -26 76 -15
166 9 66 13 134 10 150 -3 17 -7 55 -7 85 -1 30 -11 55 -21 55 -11 0 -15 -13
-8 -30 6 -16 2 -30 -10 -30 -31 0 -36 112 -11 278 12 82 19 174 15 205 -3 32
3 57 13 57 11 0 20 -13 20 -28z"/>
<path d="M2698 3609 c23 -39 42 -91 42 -115 1 -36 4 -38 20 -14 16 25 20 23
21 -10 3 -70 16 -116 35 -128 10 -7 23 -25 29 -42 10 -24 12 -23 13 5 2 32 54
49 112 35 11 -2 63 -7 116 -10 52 -3 101 -10 108 -17 7 -7 22 -5 34 4 38 29
112 41 112 17 0 -15 7 -15 23 1 18 18 17 31 -2 53 -26 32 -11 112 20 112 11 0
19 11 19 24 0 13 18 43 41 67 l41 44 -64 12 c-46 10 -94 -1 -173 -37 -141 -64
-189 -63 -318 10 -70 40 -134 60 -189 60 l-82 0 42 -71z"/>
<path d="M2713 3427 c-21 -22 -15 -56 16 -98 28 -37 30 -34 30 36 1 71 -15 92
-46 62z"/>
<path d="M2384 3350 c-61 -57 -53 -163 11 -154 23 3 73 -7 111 -23 42 -18 79
-22 96 -11 41 26 172 20 308 -13 99 -24 152 -25 301 -6 155 20 190 18 250 -9
93 -42 255 -53 269 -17 20 53 9 118 -27 150 -50 46 -81 41 -103 -16 -18 -48
-24 -49 -229 -49 -116 -1 -228 -9 -247 -20 -24 -13 -64 -12 -115 1 -44 10
-128 24 -189 29 -60 5 -123 15 -140 22 -54 22 -89 29 -137 27 -43 -1 -47 6
-36 59 7 33 5 61 -2 62 -8 0 -28 4 -45 7 -16 3 -51 -14 -76 -39z"/>
<path d="M2728 2869 c6 -18 12 -37 12 -42 0 -5 8 -4 18 2 25 15 125 -39 107
-59 -8 -9 1 -11 20 -4 19 7 35 4 35 -6 0 -10 14 -14 30 -7 17 6 30 1 30 -11 0
-12 9 -22 20 -22 11 0 20 19 20 41 0 26 9 36 23 27 59 -36 200 -30 188 8 -8
26 2 44 32 57 31 14 -18 19 -175 20 -120 0 -253 7 -295 14 -66 11 -76 9 -65
-18z"/>
<path d="M4420 2224 c0 -32 -35 -125 -78 -208 -43 -83 -130 -281 -193 -439
-62 -158 -130 -323 -150 -367 -67 -150 -322 -779 -389 -960 -37 -99 -73 -196
-80 -215 -14 -33 53 -35 1228 -35 l1243 0 -6 714 -5 713 -220 67 c-234 71
-793 206 -853 206 -20 0 -71 49 -119 115 -46 63 -122 156 -168 205 -47 50
-109 128 -138 175 -62 100 -72 104 -72 29z"/>
<path d="M3 995 l-3 -995 738 0 738 0 12 75 c6 41 20 161 33 265 12 105 44
272 70 373 31 115 44 205 36 245 -8 41 2 103 29 177 78 217 211 705 197 719
-5 4 -29 -18 -56 -48 -64 -77 -157 -140 -228 -157 -33 -8 -176 -71 -319 -140
-143 -70 -307 -145 -365 -167 -58 -23 -238 -104 -400 -180 -162 -77 -320 -145
-350 -153 l-55 -13 -2 117 c0 64 -4 135 -9 157 -4 22 -9 126 -12 230 -18 743
-52 433 -54 -505z"/>
<path d="M2349 1414 c-23 -13 -64 -42 -92 -63 l-50 -39 71 -95 c40 -52 90
-142 111 -201 41 -109 43 -120 48 -231 3 -60 6 -63 43 -40 22 14 36 37 30 51
-5 14 -1 21 9 15 14 -9 102 18 138 42 16 11 -56 67 -86 67 -17 0 -50 -19 -73
-42 -23 -23 -46 -37 -52 -31 -5 6 20 38 57 72 37 34 52 56 34 50 -20 -7 -33
-1 -32 15 3 76 -6 100 -36 88 -34 -13 -25 13 25 71 41 47 -2 66 -61 27 -45
-30 -49 -29 -59 12 -16 61 17 103 133 168 93 52 98 58 58 76 -57 26 -172 -45
-206 -127 -22 -55 -28 -58 -55 -32 -34 34 -17 102 22 87 14 -5 52 12 85 38 66
54 19 70 -62 22z"/>
<path d="M2948 1273 c24 -38 33 -86 29 -143 -8 -96 8 -98 55 -6 32 61 31 62
-43 134 -69 66 -73 67 -41 15z"/>
<path d="M2565 1264 c-74 -36 -82 -56 -27 -73 38 -13 142 24 142 50 0 42 -54
52 -115 23z"/>
<path d="M2755 988 c-30 -30 33 -108 87 -108 67 0 80 17 64 80 -12 45 -14 45
-28 9 -13 -34 -15 -34 -17 -4 -1 34 -79 51 -106 23z"/>
<path d="M2690 720 c-22 -9 -66 -18 -98 -19 -32 0 -52 -7 -44 -15 7 -8 50 -12
94 -9 50 4 99 -6 131 -27 65 -43 79 -27 36 38 -35 55 -54 60 -119 32z"/>
<path d="M2465 676 c-13 -15 -27 -62 -31 -103 l-9 -75 58 55 c65 62 66 67 31
115 -22 30 -30 31 -49 8z"/>
<path d="M2806 474 l-45 -25 52 -59 c46 -54 48 -54 21 -8 -28 47 -28 55 2 85
38 39 30 41 -30 7z"/>
<path d="M2675 385 c-47 -52 26 -145 80 -103 19 15 38 29 43 32 12 8 -57 106
-75 106 -9 0 -31 -16 -48 -35z"/>
<path d="M2400 290 c-1 -55 -14 -117 -30 -138 -16 -21 -24 -45 -18 -55 5 -9 0
-34 -12 -57 -18 -34 -15 -40 19 -40 23 0 41 13 41 30 0 36 23 39 56 6 39 -39
28 3 -18 67 -57 80 -36 94 27 19 l50 -60 41 44 c57 61 -5 152 -77 114 -39 -21
-40 -20 -20 18 18 35 17 39 -11 29 -25 -10 -30 -4 -21 25 7 21 3 52 -7 68 -14
22 -20 2 -20 -70z"/>
<path d="M2853 171 c-35 -27 0 -133 44 -130 61 3 79 53 37 105 -39 47 -48 50
-81 25z"/>
<path d="M2295 158 c-40 -23 -104 -136 -86 -153 6 -7 14 -8 18 -3 15 17 113
178 108 177 -3 0 -21 -9 -40 -21z"/>
</g>
</svg>
